<svg xmlns="http://www.w3.org/2000/svg" viewBox="0 0 45.29 49.18"><defs><style>.cls-1{fill:#040000;}.cls-2{fill:#fff;}</style></defs><title>资源 8</title><g id="图层_2" data-name="图层 2"><g id="图层_1-2" data-name="图层 1"><path class="cls-1" d="M22.29,11.55H23A22.26,22.26,0,0,1,45.29,33.81V49.18a0,0,0,0,1,0,0H8.56A8.56,8.56,0,0,1,0,40.62V33.84A22.29,22.29,0,0,1,22.29,11.55Z"/><path class="cls-1" d="M36.37,8.33C34.24,10.17,31.25,10.68,28,10c-.15-3.35.79-6.23,2.92-8.07S36-.38,39.29.27C39.44,3.62,38.5,6.5,36.37,8.33Z"/><rect class="cls-2" x="5.55" y="27.99" width="4.06" height="8.95" rx="2.03"/><rect class="cls-2" x="21.31" y="27.99" width="4.06" height="8.95" rx="2.03"/></g></g></svg>