<?xml version="1.0" encoding="utf-8"?>
<!-- Generator: Adobe Illustrator 24.0.0, SVG Export Plug-In . SVG Version: 6.00 Build 0)  -->
<svg version="1.1" id="图层_1" xmlns="http://www.w3.org/2000/svg" xmlns:xlink="http://www.w3.org/1999/xlink" x="0px" y="0px"
	 viewBox="0 0 53.3 53.3" style="enable-background:new 0 0 53.3 53.3;" xml:space="preserve">
<style type="text/css">
	.st0{fill:#C46F00;}
	.st1{fill:#F1F1F1;}
</style>
<title>资源 1</title>
<g id="图层_2_1_">
	<g id="图层_1-2">
		<path class="st0" d="M18.8,0h15.7c10.4,0,18.8,8.4,18.8,18.8v15.7c0,10.4-8.4,18.8-18.8,18.8H18.8C8.4,53.3,0,44.9,0,34.5V18.8
			C0,8.4,8.4,0,18.8,0z"/>
		<path class="st1" d="M16.8,17.4h17.7c2.5,0,4.6,2,4.6,4.5l0,0v13.5l0,0H16.8c-2.5,0-4.6-2-4.6-4.6V22
			C12.3,19.5,14.3,17.4,16.8,17.4L16.8,17.4z"/>
		<polyline class="st1" points="34.5,35.4 39.1,39.7 39.1,35.4 		"/>
		<rect x="16.2" y="24.1" class="st0" width="2" height="4.3"/>
		<rect x="23.7" y="24.1" class="st0" width="2" height="4.3"/>
	</g>
</g>
</svg>
